<svg width="137" height="74" viewBox="0 0 137 74" fill="none" xmlns="http://www.w3.org/2000/svg">
<path d="M94.4247 48.9509L98.8406 48.9729C99.3099 48.9753 99.6507 49.0836 99.863 49.298C100.033 49.4695 100.116 49.8113 100.114 50.3233L100.066 59.8592C100.049 63.2298 99.1405 65.828 97.3394 67.6537C95.5383 69.4794 92.9524 70.3838 89.5818 70.367L77.8059 70.3082C74.4353 70.2914 71.8585 69.3612 70.0757 67.5176C68.2929 65.674 67.4099 63.0669 67.4267 59.6963L67.4743 50.1604C67.4788 49.2644 67.929 48.8187 68.825 48.8231L73.2409 48.8452C73.7103 48.8475 74.0511 48.9559 74.2633 49.1703C74.4331 49.3418 74.5168 49.6836 74.5142 50.1956L74.473 58.4515C74.4664 59.7741 74.7603 60.7356 75.3546 61.3359C75.9065 61.8933 76.8651 62.1754 78.2304 62.1822L89.2383 62.2372C90.6036 62.244 91.5863 61.9715 92.1864 61.4199C92.7441 60.8253 93.0262 59.8667 93.0328 58.5441L93.074 50.2882C93.0784 49.3922 93.5287 48.9464 94.4247 48.9509Z" fill="black"/>
<path d="M11.392 26.424H14.08C14.528 26.424 14.752 26.6373 14.752 27.064V41.784C14.752 43.448 14.2933 44.7387 13.376 45.656C12.4587 46.552 11.168 47 9.504 47H6.304C4.61867 47 3.31733 46.552 2.4 45.656C1.48267 44.76 1.024 43.4693 1.024 41.784V38.776C1.024 38.328 1.248 38.104 1.696 38.104H4.416C4.864 38.104 5.088 38.328 5.088 38.776V41.592C5.088 42.2747 5.22667 42.7653 5.504 43.064C5.80267 43.3413 6.28267 43.48 6.944 43.48H8.832C9.51467 43.48 9.99467 43.3413 10.272 43.064C10.5493 42.7653 10.688 42.2747 10.688 41.592V27.096C10.688 26.648 10.9227 26.424 11.392 26.424ZM29.2955 26.424H31.9835C32.4528 26.424 32.6875 26.6373 32.6875 27.064V41.784C32.6875 43.448 32.2182 44.7387 31.2795 45.656C30.3622 46.552 29.0715 47 27.4075 47H23.8875C22.2022 47 20.9008 46.552 19.9835 45.656C19.0662 44.76 18.6075 43.4693 18.6075 41.784V27.096C18.6075 26.648 18.8315 26.424 19.2795 26.424H21.9995C22.4475 26.424 22.6715 26.648 22.6715 27.096V41.592C22.6715 42.2747 22.8102 42.7653 23.0875 43.064C23.3862 43.3413 23.8662 43.48 24.5275 43.48H26.7355C27.4182 43.48 27.8982 43.3413 28.1755 43.064C28.4742 42.7653 28.6235 42.2747 28.6235 41.592V27.096C28.6235 26.648 28.8475 26.424 29.2955 26.424ZM40.0018 47H37.3458C36.8978 47 36.6738 46.776 36.6738 46.328V27.096C36.6738 26.648 36.8978 26.424 37.3458 26.424H39.7458C40.1938 26.424 40.4924 26.5733 40.6418 26.872L47.1058 39H47.2338V27.096C47.2338 26.648 47.4578 26.424 47.9058 26.424H50.5618C51.0098 26.424 51.2338 26.648 51.2338 27.096V46.328C51.2338 46.776 51.0098 47 50.5618 47H48.2258C47.7564 47 47.4151 46.7867 47.2018 46.36L40.8018 34.456H40.6738V46.328C40.6738 46.776 40.4498 47 40.0018 47ZM54.8805 41.752V41.112C54.8805 40.664 55.1045 40.44 55.5525 40.44H58.2725C58.7205 40.44 58.9445 40.664 58.9445 41.112V41.368C58.9445 42.1787 59.1045 42.7333 59.4245 43.032C59.7445 43.3307 60.3312 43.48 61.1845 43.48H62.6885C63.5205 43.48 64.0965 43.32 64.4165 43C64.7578 42.68 64.9285 42.0827 64.9285 41.208V40.824C64.9285 40.2053 64.6725 39.736 64.1605 39.416C63.6698 39.0747 63.0512 38.872 62.3045 38.808C61.5578 38.744 60.7472 38.6267 59.8725 38.456C59.0192 38.264 58.2192 38.0293 57.4725 37.752C56.7258 37.4533 56.0965 36.888 55.5845 36.056C55.0938 35.2027 54.8485 34.1147 54.8485 32.792V31.672C54.8485 30.008 55.3178 28.7173 56.2565 27.8C57.1952 26.8827 58.4965 26.424 60.1605 26.424H63.3605C65.0458 26.424 66.3578 26.8827 67.2965 27.8C68.2352 28.7173 68.7045 30.008 68.7045 31.672V32.28C68.7045 32.728 68.4805 32.952 68.0325 32.952H65.3125C64.8645 32.952 64.6405 32.728 64.6405 32.28V32.088C64.6405 31.256 64.4805 30.6907 64.1605 30.392C63.8405 30.0933 63.2538 29.944 62.4005 29.944H61.1525C60.2778 29.944 59.6805 30.1147 59.3605 30.456C59.0618 30.776 58.9125 31.416 58.9125 32.376V32.984C58.9125 33.9867 59.7872 34.5627 61.5365 34.712C63.3498 34.8613 64.9605 35.224 66.3685 35.8C67.1152 36.12 67.7338 36.696 68.2245 37.528C68.7365 38.3387 68.9925 39.384 68.9925 40.664V41.752C68.9925 43.416 68.5232 44.7067 67.5845 45.624C66.6458 46.5413 65.3445 47 63.6805 47H60.1925C58.5285 47 57.2272 46.5413 56.2885 45.624C55.3498 44.7067 54.8805 43.416 54.8805 41.752ZM79.0105 47H76.3225C75.8532 47 75.6185 46.776 75.6185 46.328V30.296C75.6185 30.0613 75.5012 29.944 75.2665 29.944H71.6185C71.1705 29.944 70.9465 29.72 70.9465 29.272V27.096C70.9465 26.648 71.1705 26.424 71.6185 26.424H83.7145C84.1625 26.424 84.3865 26.648 84.3865 27.096V29.272C84.3865 29.72 84.1625 29.944 83.7145 29.944H80.0665C79.8105 29.944 79.6825 30.0613 79.6825 30.296V46.328C79.6825 46.776 79.4585 47 79.0105 47ZM97.358 26.424H100.046C100.515 26.424 100.75 26.6373 100.75 27.064V41.784C100.75 43.448 100.281 44.7387 99.342 45.656C98.4247 46.552 97.134 47 95.47 47H91.95C90.2647 47 88.9633 46.552 88.046 45.656C87.1287 44.76 86.67 43.4693 86.67 41.784V27.096C86.67 26.648 86.894 26.424 87.342 26.424H90.062C90.51 26.424 90.734 26.648 90.734 27.096V41.592C90.734 42.2747 90.8727 42.7653 91.15 43.064C91.4487 43.3413 91.9287 43.48 92.59 43.48H94.798C95.4807 43.48 95.9607 43.3413 96.238 43.064C96.5367 42.7653 96.686 42.2747 96.686 41.592V27.096C96.686 26.648 96.91 26.424 97.358 26.424ZM109.152 43.48H112.64C113.323 43.48 113.803 43.3413 114.08 43.064C114.379 42.7653 114.528 42.2747 114.528 41.592V31.832C114.528 31.1493 114.379 30.6693 114.08 30.392C113.803 30.0933 113.323 29.944 112.64 29.944H109.152C108.918 29.944 108.8 30.0613 108.8 30.296V43.128C108.8 43.3627 108.918 43.48 109.152 43.48ZM104.736 46.328V27.096C104.736 26.648 104.96 26.424 105.408 26.424H113.312C114.976 26.424 116.267 26.8827 117.184 27.8C118.123 28.696 118.592 29.976 118.592 31.64V41.784C118.592 43.448 118.123 44.7387 117.184 45.656C116.267 46.552 114.976 47 113.312 47H105.408C104.96 47 104.736 46.776 104.736 46.328ZM129.976 47H127.256C126.808 47 126.584 46.776 126.584 46.328V39.48L120.728 27.128C120.642 26.936 120.642 26.776 120.728 26.648C120.834 26.4987 120.984 26.424 121.176 26.424H124.568C124.909 26.424 125.165 26.648 125.336 27.096L128.536 34.872H128.76L131.896 27.096C132.045 26.648 132.301 26.424 132.664 26.424H136.056C136.269 26.424 136.418 26.488 136.504 26.616C136.61 26.744 136.61 26.9147 136.504 27.128L130.648 39.48V46.328C130.648 46.776 130.424 47 129.976 47Z" fill="black"/>
<rect x="93" width="7" height="22" fill="black"/>
</svg>
